<svg width="64" height="72" viewBox="0 0 64 72" fill="none" xmlns="http://www.w3.org/2000/svg">
<path d="M56.0281 36H63.1281V62.7C59.8615 65.5667 55.9948 67.7667 51.5281 69.3C47.0615 70.8333 42.3615 71.6 37.4281 71.6C30.4281 71.6 24.1281 70.0667 18.5281 67C12.9281 63.9333 8.52813 59.7 5.32813 54.3C2.12813 48.8333 0.528125 42.7333 0.528125 36C0.528125 29.2667 2.12813 23.2 5.32813 17.8C8.52813 12.3333 12.9281 8.06666 18.5281 5C24.1281 1.93333 30.4615 0.399997 37.5281 0.399997C42.8615 0.399997 47.7615 1.26666 52.2281 3C56.6948 4.66666 60.4615 7.16666 63.5281 10.5L58.9281 15.2C53.3948 9.73333 46.3615 7 37.8281 7C32.1615 7 27.0281 8.26666 22.4281 10.8C17.8948 13.2667 14.3281 16.7333 11.7281 21.2C9.12813 25.6 7.82812 30.5333 7.82812 36C7.82812 41.4667 9.12813 46.4 11.7281 50.8C14.3281 55.2 17.8948 58.6667 22.4281 61.2C26.9615 63.7333 32.0615 65 37.7281 65C44.9281 65 51.0281 63.2 56.0281 59.6V36Z" fill="#00A170"/>
</svg>
