<svg width="416" height="89" viewBox="0 0 416 89" fill="none" xmlns="http://www.w3.org/2000/svg">
<path d="M40.408 58.616V66.68C40.408 69.432 38.52 70.904 34.744 71.096C31.032 71.288 26.968 71.384 22.552 71.384C18.2 71.384 13.208 71.224 7.576 70.904C5.72 70.776 4.216 70.136 3.064 68.984C1.976 67.832 1.336 66.52 1.144 65.048C0.632 59.416 0.376 50.584 0.376 38.552C0.376 26.456 0.568 17.656 0.952 12.152C1.336 6.64799 4.12 3.86399 9.304 3.8C15.256 3.672 21.624 3.608 28.408 3.608C35.192 3.608 42.52 3.704 50.392 3.89599C58.328 4.088 64.792 7.064 69.784 12.824C74.776 18.584 77.272 24.92 77.272 31.832C77.272 38.744 75.064 44.44 70.648 48.92C66.232 53.4 59.768 55.64 51.256 55.64H43.768C42.936 55.64 42.168 55.928 41.464 56.504C40.76 57.08 40.408 57.784 40.408 58.616ZM40.312 23.864L40.504 41.624C40.504 42.84 41.176 43.448 42.52 43.448C46.488 43.448 49.592 42.36 51.832 40.184C54.136 37.944 55.288 35.32 55.288 32.312C55.288 29.304 54.2 26.712 52.024 24.536C49.912 22.36 46.776 21.272 42.616 21.272C41.08 21.272 40.312 22.136 40.312 23.864ZM92.7812 0.823999H111.213C113.325 0.823999 114.733 1.336 115.437 2.36C116.141 3.32 116.589 4.888 116.781 7.064C117.165 14.744 117.357 25.368 117.357 38.936C117.357 52.44 117.101 61.752 116.589 66.872C116.461 67.896 115.949 68.824 115.053 69.656C114.157 70.488 112.557 70.968 110.253 71.096C108.013 71.288 105.357 71.384 102.285 71.384C99.2133 71.384 96.4613 71.32 94.0293 71.192C89.8693 70.872 87.6933 69.432 87.5013 66.872C86.8613 61.304 86.5413 51.448 86.5413 37.304C86.5413 23.096 86.7973 13.016 87.3093 7.064C87.5013 4.888 87.9173 3.32 88.5573 2.36C89.2613 1.336 90.6693 0.823999 92.7812 0.823999ZM162.708 20.6C183.572 20.6 194.1 27.384 194.292 40.952C194.42 46.712 194.484 51.992 194.484 56.792C194.484 61.592 194.452 64.824 194.388 66.488C194.324 68.152 193.876 69.368 193.044 70.136C192.276 70.84 190.74 71.192 188.436 71.192H168.084C166.036 71.192 164.628 70.84 163.86 70.136C163.092 69.368 162.676 68.248 162.612 66.776C162.612 66.712 162.58 66.616 162.516 66.488C162.516 66.296 162.516 66.136 162.516 66.008C158.292 70.36 152.532 72.536 145.236 72.536C140.18 72.536 135.86 71.288 132.276 68.792C128.756 66.232 126.996 62.744 126.996 58.328C126.996 53.848 128.244 50.296 130.74 47.672C133.3 44.984 136.308 43.16 139.764 42.2C143.284 41.24 147.028 40.76 150.996 40.76C155.028 40.76 158.964 41.144 162.804 41.912V41.528C162.804 38.328 162.164 36.024 160.884 34.616C159.668 33.208 157.652 32.504 154.836 32.504C152.084 32.504 149.78 32.76 147.924 33.272C146.068 33.72 144.66 34.2 143.7 34.712C141.076 36.248 139.252 37.016 138.228 37.016C137.204 37.016 136.276 36.536 135.444 35.576C134.676 34.616 134.292 33.144 134.292 31.16C134.292 29.112 134.644 27.704 135.348 26.936C136.116 26.168 137.3 25.4 138.9 24.632C144.468 21.944 152.404 20.6 162.708 20.6ZM158.196 59.864C161.012 59.864 162.452 59.32 162.516 58.232C162.644 56.12 162.708 53.336 162.708 49.88C162.708 48.536 161.684 47.864 159.636 47.864C157.588 47.864 155.924 48.376 154.644 49.4C153.364 50.36 152.724 51.8 152.724 53.72C152.724 55.64 153.236 57.144 154.26 58.232C155.348 59.32 156.66 59.864 158.196 59.864ZM212.891 74.744C221.339 74.744 225.563 73.496 225.563 71C225.563 70.168 225.051 68.92 224.027 67.256C219.355 59.96 212.443 47.384 203.291 29.528C202.587 28.056 202.235 26.904 202.235 26.072C202.235 23.448 203.547 22.136 206.171 22.136H227.291C229.339 22.136 230.875 22.456 231.899 23.096C232.987 23.736 234.011 24.952 234.971 26.744L243.899 43.448C244.283 44.216 244.827 44.6 245.531 44.6C246.235 44.6 246.779 44.216 247.163 43.448L256.379 24.344C256.955 23.064 257.627 22.36 258.395 22.232C258.651 22.232 259.131 22.2 259.835 22.136H269.915C270.811 22.136 271.451 22.552 271.835 23.384C271.963 23.768 272.027 24.216 272.027 24.728C272.027 25.176 271.771 25.88 271.259 26.84C270.811 27.736 268.411 32.824 264.059 42.104C259.707 51.384 256.379 58.2 254.075 62.552C251.835 66.904 250.235 69.88 249.275 71.48C248.379 73.08 247.163 74.968 245.627 77.144C244.091 79.384 242.619 81.048 241.211 82.136C239.803 83.288 238.043 84.44 235.931 85.592C232.219 87.576 227.451 88.568 221.627 88.568C215.867 88.568 212.059 88.056 210.203 87.032C208.347 86.072 207.419 83.928 207.419 80.6C207.419 79 207.707 77.624 208.283 76.472C208.923 75.32 209.755 74.744 210.779 74.744H212.891ZM313.458 20.6C334.322 20.6 344.85 27.384 345.042 40.952C345.17 46.712 345.234 51.992 345.234 56.792C345.234 61.592 345.202 64.824 345.138 66.488C345.074 68.152 344.626 69.368 343.794 70.136C343.026 70.84 341.49 71.192 339.186 71.192H318.834C316.786 71.192 315.378 70.84 314.61 70.136C313.842 69.368 313.426 68.248 313.362 66.776C313.362 66.712 313.33 66.616 313.266 66.488C313.266 66.296 313.266 66.136 313.266 66.008C309.042 70.36 303.282 72.536 295.986 72.536C290.93 72.536 286.61 71.288 283.026 68.792C279.506 66.232 277.746 62.744 277.746 58.328C277.746 53.848 278.994 50.296 281.49 47.672C284.05 44.984 287.058 43.16 290.514 42.2C294.034 41.24 297.778 40.76 301.746 40.76C305.778 40.76 309.714 41.144 313.554 41.912V41.528C313.554 38.328 312.914 36.024 311.634 34.616C310.418 33.208 308.402 32.504 305.586 32.504C302.834 32.504 300.53 32.76 298.674 33.272C296.818 33.72 295.41 34.2 294.45 34.712C291.826 36.248 290.002 37.016 288.978 37.016C287.954 37.016 287.026 36.536 286.194 35.576C285.426 34.616 285.042 33.144 285.042 31.16C285.042 29.112 285.394 27.704 286.098 26.936C286.866 26.168 288.05 25.4 289.65 24.632C295.218 21.944 303.154 20.6 313.458 20.6ZM308.946 59.864C311.762 59.864 313.202 59.32 313.266 58.232C313.394 56.12 313.458 53.336 313.458 49.88C313.458 48.536 312.434 47.864 310.386 47.864C308.338 47.864 306.674 48.376 305.394 49.4C304.114 50.36 303.474 51.8 303.474 53.72C303.474 55.64 303.986 57.144 305.01 58.232C306.098 59.32 307.41 59.864 308.946 59.864ZM412.505 82.616C409.689 83 401.561 83.192 388.121 83.192C374.745 83.192 366.649 83 363.833 82.616C362.041 82.488 360.729 82.04 359.897 81.272C359.065 80.504 358.649 79.16 358.649 77.24V75.8C358.649 73.88 359.065 72.536 359.897 71.768C360.729 71 362.041 70.552 363.833 70.424C366.649 70.04 374.745 69.848 388.121 69.848C401.561 69.848 409.689 70.04 412.505 70.424C413.529 70.552 414.265 71 414.713 71.768C415.161 72.536 415.385 73.912 415.385 75.896V77.336C415.385 79.192 415.161 80.504 414.713 81.272C414.265 82.04 413.529 82.488 412.505 82.616Z" fill="#222222"/>
</svg>
